<svg id="heager-svg-logo" data-name="Ebene 1" xmlns="http://www.w3.org/2000/svg" viewBox="0 0 346.55 95.62" style="width: 160px;">
							<defs><style>.cls-1{fill:#2b2620;}</style></defs>
							<title>Logo_HaegerConsulting_schwarz</title>
							<path class="cls-1" d="M14.17,38.07a10.12,10.12,0,0,0-3.05,7.46V77H.62V45.53a20.79,20.79,0,0,1,1.89-8.82,19.8,19.8,0,0,1,5.25-6.93,21,21,0,0,1-5.25-7A20.4,20.4,0,0,1,.62,14V3.52h10.5V14a10.1,10.1,0,0,0,3.05,7.46,10.11,10.11,0,0,0,7.45,3h10.5a20.24,20.24,0,0,1,8.14,1.68,21.84,21.84,0,0,1,6.67,4.52,21.46,21.46,0,0,1,4.51,6.67,20,20,0,0,1,1.69,8.14V77H42.62V45.53A10.38,10.38,0,0,0,32.12,35H21.62a10.11,10.11,0,0,0-7.45,3" transform="translate(-0.62 -3.52)"></path><path class="cls-1" d="M79.38,56a5.25,5.25,0,1,0,0,10.5h21a5.25,5.25,0,1,0,0-10.5ZM63.63,24.52h36.75a15.25,15.25,0,0,1,6.15,1.27,15.64,15.64,0,0,1,8.34,8.35,15.16,15.16,0,0,1,1.26,6.14A14.76,14.76,0,0,1,115,46a17.58,17.58,0,0,1-2.89,4.78A17.58,17.58,0,0,1,115,55.56a14.76,14.76,0,0,1,1.1,5.72,15.24,15.24,0,0,1-1.26,6.15,16.39,16.39,0,0,1-3.35,5,16.21,16.21,0,0,1-5,3.35A15.24,15.24,0,0,1,100.38,77h-21a15.16,15.16,0,0,1-6.14-1.26,16,16,0,0,1-5-3.35,16.24,16.24,0,0,1-3.36-5,15.61,15.61,0,0,1,0-12.29,15.7,15.7,0,0,1,8.35-8.35,15.16,15.16,0,0,1,6.14-1.26h21a5.26,5.26,0,1,0,0-10.51H63.63Z" transform="translate(-0.62 -3.52)"></path><path class="cls-1" d="M163.39,45.53a5.25,5.25,0,1,0,0-10.5h-21a5.08,5.08,0,0,0-3.73,1.52,5.34,5.34,0,0,0,0,7.46,5.08,5.08,0,0,0,3.73,1.52ZM179.14,77H142.39a15.16,15.16,0,0,1-6.14-1.26,15.72,15.72,0,0,1-5-3.36,16.07,16.07,0,0,1-3.36-5,15.24,15.24,0,0,1-1.26-6.15,14.76,14.76,0,0,1,1.1-5.72,17.55,17.55,0,0,1,2.88-4.78A17.55,17.55,0,0,1,127.74,46a14.79,14.79,0,0,1-1.1-5.72,15.24,15.24,0,0,1,1.26-6.15,16.24,16.24,0,0,1,3.36-5,15.86,15.86,0,0,1,5-3.35,15.17,15.17,0,0,1,6.14-1.27h21a15.17,15.17,0,0,1,6.14,1.27,16,16,0,0,1,5,3.35,16.24,16.24,0,0,1,3.36,5,15.61,15.61,0,0,1,0,12.29,15.7,15.7,0,0,1-8.35,8.35A15.16,15.16,0,0,1,163.39,56h-21a5.26,5.26,0,1,0,0,10.51h36.75Z" transform="translate(-0.62 -3.52)"></path><path class="cls-1" d="M221.15,66.53A10.38,10.38,0,0,0,231.65,56V45.53A10.4,10.4,0,0,0,221.15,35h-10.5a10.4,10.4,0,0,0-10.5,10.5V56a10.38,10.38,0,0,0,10.5,10.5Zm-31.5,21H226.4a5.25,5.25,0,1,0,0-10.5H210.65a20,20,0,0,1-8.14-1.68,21.52,21.52,0,0,1-6.67-4.51,21.75,21.75,0,0,1-4.51-6.67A20.08,20.08,0,0,1,189.65,56V45.53a20,20,0,0,1,1.68-8.14,21.22,21.22,0,0,1,11.18-11.18,20,20,0,0,1,8.14-1.69h10.5a20,20,0,0,1,8.14,1.69,21.29,21.29,0,0,1,11.19,11.18,20.2,20.2,0,0,1,1.67,8.14V56a19.86,19.86,0,0,1-1.52,7.82,22.34,22.34,0,0,1-4.14,6.47,15.13,15.13,0,0,1,5.66,12,15.41,15.41,0,0,1-1.25,6.15,16.44,16.44,0,0,1-3.37,5,16,16,0,0,1-5,3.36A15.33,15.33,0,0,1,226.4,98H189.65Z" transform="translate(-0.62 -3.52)"></path><path class="cls-1" d="M289.41,45.53a5.25,5.25,0,1,0,0-10.5h-21a5.08,5.08,0,0,0-3.73,1.52,5.34,5.34,0,0,0,0,7.46,5.08,5.08,0,0,0,3.73,1.52ZM305.16,77H268.41a15.24,15.24,0,0,1-6.15-1.26,15.83,15.83,0,0,1-5-3.36,16.07,16.07,0,0,1-3.36-5,15.41,15.41,0,0,1-1.26-6.15,14.76,14.76,0,0,1,1.11-5.72,17.55,17.55,0,0,1,2.88-4.78A17.55,17.55,0,0,1,253.76,46a14.8,14.8,0,0,1-1.11-5.72,15.41,15.41,0,0,1,1.26-6.15,16.24,16.24,0,0,1,3.36-5,16,16,0,0,1,5-3.35,15.25,15.25,0,0,1,6.15-1.27h21a15.25,15.25,0,0,1,6.15,1.27,16,16,0,0,1,5,3.35,16.24,16.24,0,0,1,3.36,5,15.61,15.61,0,0,1,0,12.29,15.73,15.73,0,0,1-8.34,8.35A15.24,15.24,0,0,1,289.41,56h-21a5.26,5.26,0,1,0,0,10.51h36.75Z" transform="translate(-0.62 -3.52)"></path><path class="cls-1" d="M315.66,40.28a15.16,15.16,0,0,1,1.26-6.14,15.85,15.85,0,0,1,8.35-8.36,15.24,15.24,0,0,1,6.15-1.26h15.75V35H331.42a5.22,5.22,0,0,0-5.26,5.26V77h-10.5Z" transform="translate(-0.62 -3.52)"></path><path class="cls-1" d="M7.19,99.11c-3.84,0-6.53-2.59-6.53-6.29A6.36,6.36,0,0,1,7.32,86.5a7.77,7.77,0,0,1,3.95,1l.58.34-1.7,1.57-.32-.18a4.84,4.84,0,0,0-2.53-.64,3.35,3.35,0,0,0-3.18,1.69A5.36,5.36,0,0,0,3.57,93,4.2,4.2,0,0,0,4,95.17,3.74,3.74,0,0,0,7.47,97a5.11,5.11,0,0,0,2.62-.66l.33-.18,1.69,1.69-.61.31A9.75,9.75,0,0,1,7.19,99.11Z" transform="translate(-0.62 -3.52)"></path><path class="cls-1" d="M25.72,99.14a6.65,6.65,0,0,1-4.5-1.56,6.24,6.24,0,0,1-1.92-4.84c0-3.88,2.43-6.29,6.33-6.29a6.34,6.34,0,0,1,5,2A6.51,6.51,0,0,1,32.08,93a5.52,5.52,0,0,1-2.35,5A6.51,6.51,0,0,1,25.72,99.14Zm-.09-10.61a3.38,3.38,0,0,0-2.73,1.1,4.88,4.88,0,0,0-.65,2.83,6.65,6.65,0,0,0,.83,3.63,3.82,3.82,0,0,0,2.73,1,3.19,3.19,0,0,0,2.38-.82c.57-.56.92-1.27.92-3.12a6.41,6.41,0,0,0-.63-3.32A3.21,3.21,0,0,0,25.63,88.53Z" transform="translate(-0.62 -3.52)"></path><path class="cls-1" d="M49.2,98.93l-4.85-7.11c-.22-.32-.41-.62-.59-.9l0,1,.09,7H41.06V86.68h2.79l5,7.41c.1.14.2.3.31.48,0-.42,0-.86,0-1.27l-.06-6.62H51.8V98.93Z" transform="translate(-0.62 -3.52)"></path><path class="cls-1" d="M65.58,99.14a11.08,11.08,0,0,1-4.92-1.07l-.54-.26,1.38-1.89.39.21a7.19,7.19,0,0,0,3.69.91,3.71,3.71,0,0,0,2.08-.43,1.31,1.31,0,0,0,.8-1.18c0-.27,0-1.09-2.25-1.62l-1.47-.34a6.68,6.68,0,0,1-2.81-1.1,2.85,2.85,0,0,1-1.1-2.23c0-2.24,2.1-3.74,5.24-3.74a9.85,9.85,0,0,1,4.66,1.14l.53.28-1.4,1.76-.36-.18a6.64,6.64,0,0,0-3.34-.9c-.57,0-2.43.1-2.43,1.36,0,.42.16.9,2.05,1.35l1.69.41a5.9,5.9,0,0,1,2.81,1.25,3.27,3.27,0,0,1,1.12,2.37,3.74,3.74,0,0,1-2.3,3.15A7.4,7.4,0,0,1,65.58,99.14Z" transform="translate(-0.62 -3.52)"></path><path class="cls-1" d="M85.5,99.12c-2.4,0-4-.6-4.76-1.85A3.31,3.31,0,0,1,80.23,95V86.64H83v7.73A7,7,0,0,0,83.1,96c.18.64,1.09,1,2.48,1a3.36,3.36,0,0,0,2.23-.55c.32-.33.42-.59.42-1.58v-8.2H91V95c0,1.6-.19,2.4-1.33,3.18A7.26,7.26,0,0,1,85.5,99.12Z" transform="translate(-0.62 -3.52)"></path><polygon class="cls-1" points="99.9 95.41 99.9 83.12 102.65 83.12 102.65 93.27 108.56 93.27 108.11 95.41 99.9 95.41"></polygon><polygon class="cls-1" points="118.17 95.41 118.17 85.26 114.24 85.26 114.24 83.12 124.99 83.12 124.79 85.26 120.86 85.26 120.86 95.41 118.17 95.41"></polygon><rect class="cls-1" x="133.52" y="83.12" width="2.71" height="12.28"></rect><path class="cls-1" d="M154.87,98.93,150,91.82q-.33-.48-.6-.9c0,.32,0,.64,0,1l.09,7h-2.83V86.68h2.8l5,7.41.31.48c0-.42,0-.86,0-1.27l-.07-6.62h2.74V98.93Z" transform="translate(-0.62 -3.52)"></path><path class="cls-1" d="M173.28,99.14a7.45,7.45,0,0,1-4.83-1.53,5.82,5.82,0,0,1-2-4.76,5.74,5.74,0,0,1,2.49-5.15,6.93,6.93,0,0,1,4.1-1.15,7.61,7.61,0,0,1,4.3,1.2l.49.33-1.46,1.54-.33-.17a5.76,5.76,0,0,0-3-.82,3.28,3.28,0,0,0-3.2,1.62,6.36,6.36,0,0,0-.53,2.65A3.5,3.5,0,0,0,173.42,97a5.43,5.43,0,0,0,1.83-.27V94.14h-2.81L171.79,92h6.11v6.07l-.28.14A10.32,10.32,0,0,1,173.28,99.14Z" transform="translate(-0.62 -3.52)"></path>
						</svg>